<svg xmlns="http://www.w3.org/2000/svg" xmlns:xlink="http://www.w3.org/1999/xlink" contentStyleType="text/css" data-diagram-type="DESCRIPTION" height="396px" preserveAspectRatio="none" style="width:1998px;height:396px;background:#FFFFFF;" version="1.1" viewBox="0 0 1998 396" width="1998px" zoomAndPan="magnify"><title>Sistem Kasir &amp; Stok Multi-Toko</title><defs/><g><g class="title" data-source-line="1"><text fill="#000000" font-family="sans-serif" font-size="14" font-weight="bold" lengthAdjust="spacing" textLength="245.8271" x="869.274" y="22.9951">Sistem Kasir &amp; Stok Multi-Toko</text></g><!--cluster Sistem Kasir & Stok Multi-Toko--><g class="cluster" data-entity="Sistem Kasir . Stok Multi-Toko" data-source-line="9" data-uid="ent0007" id="cluster_Sistem Kasir . Stok Multi-Toko"><rect fill="none" height="224.57" rx="2.5" ry="2.5" style="stroke:#181818;stroke-width:1;" width="1838" x="7" y="166.0869"/><text fill="#000000" font-family="sans-serif" font-size="14" font-weight="bold" lengthAdjust="spacing" textLength="245.8271" x="803.0864" y="181.082">Sistem Kasir &amp; Stok Multi-Toko</text></g><!--entity UC_Login--><g class="entity" data-entity="UC_Login" data-source-line="11" data-uid="ent0008" id="entity_UC_Login"><ellipse cx="1610.0004" cy="223.7805" fill="#F1F1F1" rx="29.8804" ry="14.5236" style="stroke:#181818;stroke-width:0.5;"/><text fill="#000000" font-family="sans-serif" font-size="14" lengthAdjust="spacing" textLength="38.0146" x="1590.9931" y="228.4289">Login</text></g><!--entity UC_ManageProducts--><g class="entity" data-entity="UC_ManageProducts" data-source-line="13" data-uid="ent0009" id="entity_UC_ManageProducts"><ellipse cx="723.9963" cy="223.7801" fill="#F1F1F1" rx="75.9663" ry="17.5933" style="stroke:#181818;stroke-width:0.5;"/><text fill="#000000" font-family="sans-serif" font-size="14" lengthAdjust="spacing" textLength="121.0645" x="663.464" y="228.4286">Manage Products</text></g><!--entity UC_ManageCategories--><g class="entity" data-entity="UC_ManageCategories" data-source-line="14" data-uid="ent0010" id="entity_UC_ManageCategories"><ellipse cx="916.9965" cy="223.7802" fill="#F1F1F1" rx="82.0665" ry="18.8133" style="stroke:#181818;stroke-width:0.5;"/><text fill="#000000" font-family="sans-serif" font-size="14" lengthAdjust="spacing" textLength="135.5225" x="849.2353" y="228.4286">Manage Categories</text></g><!--entity UC_StockAdjust--><g class="entity" data-entity="UC_StockAdjust" data-source-line="15" data-uid="ent0011" id="entity_UC_StockAdjust"><ellipse cx="1468.003" cy="223.7795" fill="#F1F1F1" rx="77.113" ry="17.8226" style="stroke:#181818;stroke-width:0.5;"/><text fill="#000000" font-family="sans-serif" font-size="14" lengthAdjust="spacing" textLength="123.8193" x="1406.0933" y="228.4279">Stock Adjustment</text></g><!--entity UC_Sales--><g class="entity" data-entity="UC_Sales" data-source-line="16" data-uid="ent0012" id="entity_UC_Sales"><ellipse cx="1752.0001" cy="223.7729" fill="#F1F1F1" rx="77.1301" ry="17.826" style="stroke:#181818;stroke-width:0.5;"/><text fill="#000000" font-family="sans-serif" font-size="14" lengthAdjust="spacing" textLength="123.8604" x="1690.0699" y="228.4213">Sales Transaction</text></g><!--entity UC_Invoice--><g class="entity" data-entity="UC_Invoice" data-source-line="17" data-uid="ent0013" id="entity_UC_Invoice"><ellipse cx="1752.9993" cy="356.7827" fill="#F1F1F1" rx="75.4793" ry="17.4959" style="stroke:#181818;stroke-width:0.5;"/><text fill="#000000" font-family="sans-serif" font-size="14" lengthAdjust="spacing" textLength="119.8887" x="1693.055" y="361.4312">Generate Invoice</text></g><!--entity UC_Print--><g class="entity" data-entity="UC_Print" data-source-line="18" data-uid="ent0014" id="entity_UC_Print"><ellipse cx="1578.9959" cy="356.7841" fill="#F1F1F1" rx="63.6359" ry="15.1272" style="stroke:#181818;stroke-width:0.5;"/><text fill="#000000" font-family="sans-serif" font-size="14" lengthAdjust="spacing" textLength="89.8174" x="1534.0872" y="361.4325">Print Receipt</text></g><!--entity UC_Reports--><g class="entity" data-entity="UC_Reports" data-source-line="19" data-uid="ent0015" id="entity_UC_Reports"><ellipse cx="1098.9956" cy="223.78" fill="#F1F1F1" rx="64.5656" ry="15.3131" style="stroke:#181818;stroke-width:0.5;"/><text fill="#000000" font-family="sans-serif" font-size="14" lengthAdjust="spacing" textLength="92.3125" x="1052.8394" y="228.4284">View Reports</text></g><!--entity UC_Logs--><g class="entity" data-entity="UC_Logs" data-source-line="20" data-uid="ent0016" id="entity_UC_Logs"><ellipse cx="1277.0004" cy="223.7749" fill="#F1F1F1" rx="78.6904" ry="18.1381" style="stroke:#181818;stroke-width:0.5;"/><text fill="#000000" font-family="sans-serif" font-size="14" lengthAdjust="spacing" textLength="127.5791" x="1213.2108" y="228.4234">View Activity Logs</text></g><!--entity UC_WriteLog--><g class="entity" data-entity="UC_WriteLog" data-source-line="21" data-uid="ent0017" id="entity_UC_WriteLog"><ellipse cx="906.003" cy="356.7835" fill="#F1F1F1" rx="77.333" ry="17.8666" style="stroke:#181818;stroke-width:0.5;"/><text fill="#000000" font-family="sans-serif" font-size="14" lengthAdjust="spacing" textLength="124.3457" x="843.8301" y="361.4319">Write Activity Log</text></g><!--entity UC_UserRole--><g class="entity" data-entity="UC_UserRole" data-source-line="22" data-uid="ent0018" id="entity_UC_UserRole"><ellipse cx="511.9968" cy="223.7722" fill="#F1F1F1" rx="101.4268" ry="22.6854" style="stroke:#181818;stroke-width:0.5;"/><text fill="#000000" font-family="sans-serif" font-size="14" lengthAdjust="spacing" textLength="179.1973" x="422.3982" y="228.4207">User &amp; Role Management</text></g><!--entity UC_Store--><g class="entity" data-entity="UC_Store" data-source-line="23" data-uid="ent0019" id="entity_UC_Store"><ellipse cx="103.9984" cy="223.7786" fill="#F1F1F1" rx="81.4084" ry="18.6817" style="stroke:#181818;stroke-width:0.5;"/><text fill="#000000" font-family="sans-serif" font-size="14" lengthAdjust="spacing" textLength="133.9844" x="37.0062" y="228.427">Store Management</text></g><!--entity UC_Backup--><g class="entity" data-entity="UC_Backup" data-source-line="24" data-uid="ent0020" id="entity_UC_Backup"><ellipse cx="297.9984" cy="223.7806" fill="#F1F1F1" rx="77.8684" ry="17.9737" style="stroke:#181818;stroke-width:0.5;"/><text fill="#000000" font-family="sans-serif" font-size="14" lengthAdjust="spacing" textLength="125.624" x="235.1864" y="228.429">Backup &amp; Restore</text></g><!--entity UC_AutoBackup--><g class="entity" data-entity="UC_AutoBackup" data-source-line="25" data-uid="ent0021" id="entity_UC_AutoBackup"><ellipse cx="1305.0045" cy="356.7918" fill="#F1F1F1" rx="63.2245" ry="15.0449" style="stroke:#181818;stroke-width:0.5;"/><text fill="#000000" font-family="sans-serif" font-size="14" lengthAdjust="spacing" textLength="88.7031" x="1260.6529" y="361.4402">Auto Backup</text></g><!--entity Owner--><g class="entity" data-entity="Owner" data-source-line="3" data-uid="ent0002" id="entity_Owner"><ellipse cx="916.996" cy="51.2969" fill="#F1F1F1" rx="8" ry="8" style="stroke:#181818;stroke-width:0.5;"/><path d="M916.996,59.2969 L916.996,86.2969 M903.996,67.2969 L929.996,67.2969 M916.996,86.2969 L903.996,101.2969 M916.996,86.2969 L929.996,101.2969" fill="none" style="stroke:#181818;stroke-width:0.5;"/><text fill="#000000" font-family="sans-serif" font-size="14" lengthAdjust="spacing" textLength="45.7119" x="894.14" y="115.792">Owner</text></g><!--entity Admin--><g class="entity" data-entity="Admin" data-source-line="4" data-uid="ent0003" id="entity_Admin"><ellipse cx="1199.0021" cy="51.2969" fill="#F1F1F1" rx="8" ry="8" style="stroke:#181818;stroke-width:0.5;"/><path d="M1199.0021,59.2969 L1199.0021,86.2969 M1186.0021,67.2969 L1212.0021,67.2969 M1199.0021,86.2969 L1186.0021,101.2969 M1199.0021,86.2969 L1212.0021,101.2969" fill="none" style="stroke:#181818;stroke-width:0.5;"/><text fill="#000000" font-family="sans-serif" font-size="14" lengthAdjust="spacing" textLength="44.8643" x="1176.57" y="115.792">Admin</text></g><!--entity Kasir--><g class="entity" data-entity="Kasir" data-source-line="5" data-uid="ent0004" id="entity_Kasir"><ellipse cx="1651.9996" cy="51.2969" fill="#F1F1F1" rx="8" ry="8" style="stroke:#181818;stroke-width:0.5;"/><path d="M1651.9996,59.2969 L1651.9996,86.2969 M1638.9996,67.2969 L1664.9996,67.2969 M1651.9996,86.2969 L1638.9996,101.2969 M1651.9996,86.2969 L1664.9996,101.2969" fill="none" style="stroke:#181818;stroke-width:0.5;"/><text fill="#000000" font-family="sans-serif" font-size="14" lengthAdjust="spacing" textLength="34.6992" x="1634.65" y="115.792">Kasir</text></g><!--entity Customer--><g class="entity" data-entity="Customer" data-source-line="6" data-uid="ent0005" id="entity_Customer"><ellipse cx="1752.002" cy="51.2969" fill="#F1F1F1" rx="8" ry="8" style="stroke:#181818;stroke-width:0.5;"/><path d="M1752.002,59.2969 L1752.002,86.2969 M1739.002,67.2969 L1765.002,67.2969 M1752.002,86.2969 L1739.002,101.2969 M1752.002,86.2969 L1765.002,101.2969" fill="none" style="stroke:#181818;stroke-width:0.5;"/><text fill="#000000" font-family="sans-serif" font-size="14" lengthAdjust="spacing" textLength="68.0039" x="1718" y="115.792">Customer</text></g><!--entity Scheduler--><g class="entity" data-entity="Scheduler" data-source-line="7" data-uid="ent0006" id="entity_Scheduler"><ellipse cx="1928.0026" cy="194.1269" fill="#F1F1F1" rx="8" ry="8" style="stroke:#181818;stroke-width:0.5;"/><path d="M1928.0026,202.1269 L1928.0026,229.1269 M1915.0026,210.1269 L1941.0026,210.1269 M1928.0026,229.1269 L1915.0026,244.1269 M1928.0026,229.1269 L1941.0026,244.1269" fill="none" style="stroke:#181818;stroke-width:0.5;"/><text fill="#000000" font-family="sans-serif" font-size="14" lengthAdjust="spacing" textLength="126.7451" x="1864.63" y="258.622">System Scheduler</text></g><!--link Owner to UC_Login--><g class="link" data-entity-1="Owner" data-entity-2="UC_Login" data-source-line="29" data-uid="lnk22" id="link_Owner_UC_Login"><path d="M940.3,85.9669 C983.38,93.2969 1078.44,109.0269 1159,119.0869 C1203.75,124.6769 1523.85,135.7069 1563,158.0869 C1583.25,169.6669 1594.6139,188.4739 1601.7839,203.7739" fill="none" id="Owner-to-UC_Login" style="stroke:#181818;stroke-width:1;"/><polygon fill="#181818" points="1604.33,209.2069,1604.1329,199.36,1602.2083,204.6794,1596.8889,202.7547,1604.33,209.2069" style="stroke:#181818;stroke-width:1;"/></g><!--link Admin to UC_Login--><g class="link" data-entity-1="Admin" data-entity-2="UC_Login" data-source-line="30" data-uid="lnk23" id="link_Admin_UC_Login"><path d="M1221.57,81.2669 C1282.06,80.5069 1450.8,85.4869 1563,158.0869 C1582.46,170.6869 1593.8597,189.0039 1601.2897,203.9539" fill="none" id="Admin-to-UC_Login" style="stroke:#181818;stroke-width:1;"/><polygon fill="#181818" points="1603.96,209.3269,1603.5365,199.4871,1601.7347,204.8494,1596.3725,203.0476,1603.96,209.3269" style="stroke:#181818;stroke-width:1;"/></g><!--link Kasir to UC_Login--><g class="link" data-entity-1="Kasir" data-entity-2="UC_Login" data-source-line="31" data-uid="lnk24" id="link_Kasir_UC_Login"><path d="M1640.86,119.3169 C1632.06,148.8069 1621.9949,182.5672 1615.8449,203.1872" fill="none" id="Kasir-to-UC_Login" style="stroke:#181818;stroke-width:1;"/><polygon fill="#181818" points="1614.13,208.9369,1620.5355,201.4556,1615.5591,204.1454,1612.8692,199.1691,1614.13,208.9369" style="stroke:#181818;stroke-width:1;"/></g><!--link Customer to UC_Sales--><g class="link" data-entity-1="Customer" data-entity-2="UC_Sales" data-source-line="32" data-uid="lnk25" id="link_Customer_UC_Sales"><path d="M1752,119.3169 C1752,147.3469 1752,178.4169 1752,199.7169" fill="none" id="Customer-to-UC_Sales" style="stroke:#181818;stroke-width:1;"/><polygon fill="#181818" points="1752,205.7169,1756,196.7169,1752,200.7169,1748,196.7169,1752,205.7169" style="stroke:#181818;stroke-width:1;"/></g><!--link Owner to UC_ManageProducts--><g class="link" data-entity-1="Owner" data-entity-2="UC_ManageProducts" data-source-line="34" data-uid="lnk26" id="link_Owner_UC_ManageProducts"><path d="M893.72,98.9269 C856.22,126.2869 787.7967,176.22 751.0167,203.06" fill="none" id="Owner-to-UC_ManageProducts" style="stroke:#181818;stroke-width:1;"/><polygon fill="#181818" points="746.17,206.5969,755.798,204.5227,750.2089,203.6495,751.0822,198.0604,746.17,206.5969" style="stroke:#181818;stroke-width:1;"/></g><!--link Admin to UC_ManageProducts--><g class="link" data-entity-1="Admin" data-entity-2="UC_ManageProducts" data-source-line="35" data-uid="lnk27" id="link_Admin_UC_ManageProducts"><path d="M1176.25,86.3469 C1095.29,102.0369 825.46,154.4869 817,158.0869 C788.77,170.0969 765.0187,187.655 747.1687,202.535" fill="none" id="Admin-to-UC_ManageProducts" style="stroke:#181818;stroke-width:1;"/><polygon fill="#181818" points="742.56,206.3769,752.0343,203.6865,746.4006,203.1753,746.9118,197.5416,742.56,206.3769" style="stroke:#181818;stroke-width:1;"/></g><!--link Owner to UC_ManageCategories--><g class="link" data-entity-1="Owner" data-entity-2="UC_ManageCategories" data-source-line="36" data-uid="lnk28" id="link_Owner_UC_ManageCategories"><path d="M917,119.3169 C917,146.8569 917,177.1269 917,198.5969" fill="none" id="Owner-to-UC_ManageCategories" style="stroke:#181818;stroke-width:1;"/><polygon fill="#181818" points="917,204.5969,921,195.5969,917,199.5969,913,195.5969,917,204.5969" style="stroke:#181818;stroke-width:1;"/></g><!--link Admin to UC_ManageCategories--><g class="link" data-entity-1="Admin" data-entity-2="UC_ManageCategories" data-source-line="37" data-uid="lnk29" id="link_Admin_UC_ManageCategories"><path d="M1176.28,89.9569 C1141.25,102.6469 1072.29,128.9369 1017,158.0869 C989.93,172.3669 965.6628,188.3268 945.8428,202.1368" fill="none" id="Admin-to-UC_ManageCategories" style="stroke:#181818;stroke-width:1;"/><polygon fill="#181818" points="940.92,205.5669,950.591,203.7036,945.0224,202.7085,946.0175,197.1398,940.92,205.5669" style="stroke:#181818;stroke-width:1;"/></g><!--link Kasir to UC_Sales--><g class="link" data-entity-1="Kasir" data-entity-2="UC_Sales" data-source-line="39" data-uid="lnk30" id="link_Kasir_UC_Sales"><path d="M1669.65,106.7969 C1689.83,135.2269 1718.8768,176.1243 1736.3968,200.8043" fill="none" id="Kasir-to-UC_Sales" style="stroke:#181818;stroke-width:1;"/><polygon fill="#181818" points="1739.87,205.6969,1737.922,196.0426,1736.9757,201.6197,1731.3985,200.6735,1739.87,205.6969" style="stroke:#181818;stroke-width:1;"/></g><!--link Owner to UC_Reports--><g class="link" data-entity-1="Owner" data-entity-2="UC_Reports" data-source-line="40" data-uid="lnk31" id="link_Owner_UC_Reports"><path d="M940.12,99.3769 C960.45,114.7369 990.78,137.7669 1017,158.0869 C1039.36,175.4169 1060.2237,191.9126 1076.7737,205.0726" fill="none" id="Owner-to-UC_Reports" style="stroke:#181818;stroke-width:1;"/><polygon fill="#181818" points="1081.47,208.8069,1076.9151,200.0746,1077.5564,205.6949,1071.9361,206.3363,1081.47,208.8069" style="stroke:#181818;stroke-width:1;"/></g><!--link Admin to UC_Reports--><g class="link" data-entity-1="Admin" data-entity-2="UC_Reports" data-source-line="41" data-uid="lnk32" id="link_Admin_UC_Reports"><path d="M1176.31,113.8969 C1155.22,143.6069 1128.2548,181.5855 1112.6048,203.6155" fill="none" id="Admin-to-UC_Reports" style="stroke:#181818;stroke-width:1;"/><polygon fill="#181818" points="1109.13,208.5069,1117.6031,203.4863,1112.0257,204.4307,1111.0813,198.8533,1109.13,208.5069" style="stroke:#181818;stroke-width:1;"/></g><!--link Owner to UC_StockAdjust--><g class="link" data-entity-1="Owner" data-entity-2="UC_StockAdjust" data-source-line="42" data-uid="lnk33" id="link_Owner_UC_StockAdjust"><path d="M940.22,86.8169 C999.01,99.0169 1158.65,131.2269 1293,150.0869 C1328.39,155.0569 1339.42,145.8769 1373,158.0869 C1402.44,168.7969 1426.9249,186.8151 1445.0049,202.1551" fill="none" id="Owner-to-UC_StockAdjust" style="stroke:#181818;stroke-width:1;"/><polygon fill="#181818" points="1449.58,206.0369,1445.3052,197.1641,1445.7674,202.8021,1440.1295,203.2643,1449.58,206.0369" style="stroke:#181818;stroke-width:1;"/></g><!--link Admin to UC_StockAdjust--><g class="link" data-entity-1="Admin" data-entity-2="UC_StockAdjust" data-source-line="43" data-uid="lnk34" id="link_Admin_UC_StockAdjust"><path d="M1221.89,90.3869 C1255.78,103.2469 1320.92,129.2869 1373,158.0869 C1399.37,172.6669 1422.8515,188.9952 1441.6415,202.8552" fill="none" id="Admin-to-UC_StockAdjust" style="stroke:#181818;stroke-width:1;"/><polygon fill="#181818" points="1446.47,206.4169,1441.6016,197.8554,1442.4462,203.4488,1436.8528,204.2934,1446.47,206.4169" style="stroke:#181818;stroke-width:1;"/></g><!--link Owner to UC_UserRole--><g class="link" data-entity-1="Owner" data-entity-2="UC_UserRole" data-source-line="45" data-uid="lnk35" id="link_Owner_UC_UserRole"><path d="M893.79,86.1669 C844.31,95.6069 725.28,120.5369 631,158.0869 C600.85,170.0969 573.7818,184.8813 550.4818,198.7913" fill="none" id="Owner-to-UC_UserRole" style="stroke:#181818;stroke-width:1;"/><polygon fill="#181818" points="545.33,201.8669,555.1081,200.688,549.6231,199.3039,551.0073,193.819,545.33,201.8669" style="stroke:#181818;stroke-width:1;"/></g><!--link Owner to UC_Store--><g class="link" data-entity-1="Owner" data-entity-2="UC_Store" data-source-line="46" data-uid="lnk36" id="link_Owner_UC_Store"><path d="M893.94,82.9469 C786.54,87.8569 335.1,110.9869 203,158.0869 C173.22,168.7069 148.1192,186.2012 129.1192,201.4512" fill="none" id="Owner-to-UC_Store" style="stroke:#181818;stroke-width:1;"/><polygon fill="#181818" points="124.44,205.2069,133.9626,202.6928,128.3393,202.0771,128.955,196.4539,124.44,205.2069" style="stroke:#181818;stroke-width:1;"/></g><!--link Owner to UC_Backup--><g class="link" data-entity-1="Owner" data-entity-2="UC_Backup" data-source-line="47" data-uid="lnk37" id="link_Owner_UC_Backup"><path d="M893.86,81.6569 C818.76,81.4869 576.12,86.8369 393,158.0869 C363.99,169.3769 339.6731,187.0903 321.4931,202.2103" fill="none" id="Owner-to-UC_Backup" style="stroke:#181818;stroke-width:1;"/><polygon fill="#181818" points="316.88,206.0469,326.3573,203.3673,320.7242,202.8497,321.2419,197.2166,316.88,206.0469" style="stroke:#181818;stroke-width:1;"/></g><!--link Scheduler to UC_AutoBackup--><g class="link" data-entity-1="Scheduler" data-entity-2="UC_AutoBackup" data-source-line="48" data-uid="lnk38" id="link_Scheduler_UC_AutoBackup"><path d="M1892.94,262.3569 C1874.49,279.6269 1850.44,298.5369 1825,308.9269 C1822.34,310.0069 1504.4967,338.1687 1369.2667,350.1187" fill="none" id="Scheduler-to-UC_AutoBackup" style="stroke:#181818;stroke-width:1;"/><polygon fill="#181818" points="1363.29,350.6469,1372.6072,353.8391,1368.2706,350.2068,1371.903,345.8702,1363.29,350.6469" style="stroke:#181818;stroke-width:1;"/></g><!--link Owner to UC_Logs--><g class="link" data-entity-1="Owner" data-entity-2="UC_Logs" data-source-line="50" data-uid="lnk39" id="link_Owner_UC_Logs"><path d="M940.11,86.0769 C987.1,95.0269 1096.5,118.6369 1181,158.0869 C1208.68,171.0169 1232.5767,187.7354 1251.2967,202.1554" fill="none" id="Owner-to-UC_Logs" style="stroke:#181818;stroke-width:1;"/><polygon fill="#181818" points="1256.05,205.8169,1251.361,197.1558,1252.0889,202.7657,1246.4791,203.4936,1256.05,205.8169" style="stroke:#181818;stroke-width:1;"/></g><!--link Admin to UC_Logs--><g class="link" data-entity-1="Admin" data-entity-2="UC_Logs" data-source-line="51" data-uid="lnk40" id="link_Admin_UC_Logs"><path d="M1219.7,119.3169 C1235.13,147.1869 1252.613,178.7381 1264.443,200.0981" fill="none" id="Admin-to-UC_Logs" style="stroke:#181818;stroke-width:1;"/><polygon fill="#181818" points="1267.35,205.3469,1266.4887,195.5357,1264.9275,200.9729,1259.4904,199.4117,1267.35,205.3469" style="stroke:#181818;stroke-width:1;"/></g><!--link UC_Sales to UC_Invoice--><g class="link" data-entity-1="UC_Sales" data-entity-2="UC_Invoice" data-source-line="54" data-uid="lnk41" id="link_UC_Sales_UC_Invoice"><path d="M1752.13,241.9069 C1752.32,267.1469 1752.6344,308.057 1752.8244,333.077" fill="none" id="UC_Sales-to-UC_Invoice" style="stroke:#181818;stroke-width:1;"/><polygon fill="#181818" points="1752.87,339.0769,1756.8015,330.0468,1752.832,334.077,1748.8018,330.1075,1752.87,339.0769" style="stroke:#181818;stroke-width:1;"/><text fill="#000000" font-family="sans-serif" font-size="13" lengthAdjust="spacing" textLength="63.0068" x="1753" y="304.9938">&#171;include&#187;</text></g><!--link UC_Sales to UC_Print--><g class="link" data-entity-1="UC_Sales" data-entity-2="UC_Print" data-source-line="55" data-uid="lnk42" id="link_UC_Sales_UC_Print"><path d="M1730.44,241.1069 C1696.11,267.0969 1634.4032,313.8346 1602.1832,338.2346" fill="none" id="UC_Sales-to-UC_Print" style="stroke:#181818;stroke-width:1;stroke-dasharray:7,7;"/><polygon fill="#181818" points="1597.4,341.8569,1606.9897,339.6122,1601.386,338.8383,1602.1599,333.2346,1597.4,341.8569" style="stroke:#181818;stroke-width:1;"/><text fill="#000000" font-family="sans-serif" font-size="13" lengthAdjust="spacing" textLength="61.1851" x="1661" y="304.9938">&#171;extend&#187;</text></g><!--link UC_ManageProducts to UC_WriteLog--><g class="link" data-entity-1="UC_ManageProducts" data-entity-2="UC_WriteLog" data-source-line="57" data-uid="lnk43" id="link_UC_ManageProducts_UC_WriteLog"><path d="M744.09,241.1369 C765.67,258.4969 801.15,286.4669 833,308.9269 C848.14,319.5969 860.4945,327.653 874.5345,336.443" fill="none" id="UC_ManageProducts-to-UC_WriteLog" style="stroke:#181818;stroke-width:1;"/><polygon fill="#181818" points="879.62,339.6269,874.1143,331.4607,875.382,336.9736,869.8691,338.2414,879.62,339.6269" style="stroke:#181818;stroke-width:1;"/><text fill="#000000" font-family="sans-serif" font-size="13" lengthAdjust="spacing" textLength="63.0068" x="834" y="304.9938">&#171;include&#187;</text></g><!--link UC_StockAdjust to UC_WriteLog--><g class="link" data-entity-1="UC_StockAdjust" data-entity-2="UC_WriteLog" data-source-line="58" data-uid="lnk44" id="link_UC_StockAdjust_UC_WriteLog"><path d="M1435.36,240.3569 C1417.38,248.2169 1394.42,257.0869 1373,261.9269 C1282.38,282.4069 1038.01,248.2669 956,291.9269 C936.73,302.1769 925.3392,318.1574 917.0792,333.3274" fill="none" id="UC_StockAdjust-to-UC_WriteLog" style="stroke:#181818;stroke-width:1;"/><polygon fill="#181818" points="914.21,338.5969,922.0268,332.6054,916.601,334.2056,915.0008,328.7798,914.21,338.5969" style="stroke:#181818;stroke-width:1;"/><text fill="#000000" font-family="sans-serif" font-size="13" lengthAdjust="spacing" textLength="63.0068" x="957" y="304.9938">&#171;include&#187;</text></g><!--link UC_Backup to UC_AutoBackup--><g class="link" data-entity-1="UC_Backup" data-entity-2="UC_AutoBackup" data-source-line="60" data-uid="lnk45" id="link_UC_Backup_UC_AutoBackup"><path d="M330.6,240.5669 C348.56,248.4869 371.52,257.3469 393,261.9269 C668.02,320.5669 746.39,253.8369 1025,291.9269 C1112.19,303.8369 1206.4681,328.0838 1260.2081,342.9838" fill="none" id="UC_Backup-to-UC_AutoBackup" style="stroke:#181818;stroke-width:1;stroke-dasharray:7,7;"/><polygon fill="#181818" points="1265.99,344.5869,1258.3859,338.3277,1261.1718,343.251,1256.2485,346.0368,1265.99,344.5869" style="stroke:#181818;stroke-width:1;"/><text fill="#000000" font-family="sans-serif" font-size="13" lengthAdjust="spacing" textLength="61.1851" x="1119" y="304.9938">&#171;extend&#187;</text></g><!--SRC=[XPDBJ-Cm4CVl_XIZ7bWu5EuhLAbKQ8Ls4OZoE2BB6NLDKhko7LYquhipVYLsMe6KW-S_Fu_d5ITTXx2Mrk4MVdCh3Hp1skaMhllEoVczRZLZN3XjuEPDeKddPRELAft3jNHUzTRfxO3DrkyXybhynQRlqCo0sz5YpA1mN6qeXzdNISpWFmEWx_YFtaXrukCyh9w3mRnypHNV8DmQtVJ2sGn4EQi5kE8EDzf8dA2Zxc7AGhHKxGlLjKNbCXlqA0UCTsZXtd1bgN2fX_o2mnE_a9f7eU5AlMefC0F9zCYjaSh17GgKk-6X87hleyGtSkwq6OjBvk1Uqjklqhq3jSKMBGh4av7qV8ba8dZ8zjI3HT_zEqqZYGqfo_PUxqgjCOUOe7lWWekst_bWQBsMWQXxOjax3T7CJYybu8En7tIteuK0tlfrQX5wYo2uHHQs4URpnRW6OIbhAMvJ9UKLpMeSKHrliZLLu8dlmBrYXGxSBBnrUZ6HAbuUS1KcYnLPBcH5buxwoZ3CQI0paT8yXjyswyMiziPXzwPX_JYlbEZw1iyk_pbK3SjLPopz3V0JpizbH1UBaJezNGp_H60mX264xGqcXypBVI3cs9blO3Oq8QSmbbxbyGa0]--></g></svg>